<?xml version="1.0" encoding="utf-8"?>
<!-- Generator: Adobe Illustrator 27.0.0, SVG Export Plug-In . SVG Version: 6.00 Build 0)  -->
<svg version="1.1" id="Calque_1" xmlns="http://www.w3.org/2000/svg" xmlns:xlink="http://www.w3.org/1999/xlink" x="0px" y="0px"
	 viewBox="0 0 773.5 254.6" style="enable-background:new 0 0 773.5 254.6;" xml:space="preserve">
<style type="text/css">
	.st0{fill:#E95E10;}
	.st1{fill:#717B82;}
	.st2{fill:none;}
</style>
<g>
	<g>
		<g>
			<g>
				<g>
					<path class="st0" d="M108.3,155.7c-3.3,8.1-13.1,13-25,13c-30,0-40.3-22.9-40.3-46.8c0-28.3,17.8-47.4,39.8-47.4
						c11.5,0,19.8,4.4,25.5,13.7V76.9h24.1v92c0,27.4-20,42.2-45.3,42.2c-25.4,0-44-14.6-44-38.1h22.4c0,10.9,8,17.4,20,17.4
						c12.8,0,22.9-7.6,22.9-19.6V155.7z M109,124.6c0-19.8-6.8-29.2-20.5-29.2c-13.5,0-20.5,9.1-20.5,27.8
						c0,16.3,8.7,26.6,20.5,26.6C100.1,149.8,109,140,109,124.6z"/>
					<g>
						<g>
							<path class="st1" d="M138.2,167.9V43.5h24.1v124.4H138.2z"/>
						</g>
					</g>
					<g>
						<g>
							<path class="st1" d="M168.1,122.4c0-28.9,18-47.9,46.8-47.9c28.5,0,46.3,18.9,46.3,47.9c0,28.9-18,47.9-46.3,47.9
								C185.5,170.3,168.1,150.7,168.1,122.4z M236.9,122.4c0-18.5-7.4-27.6-22-27.6c-14.6,0-22,9.1-22,27.6s7.4,27.8,22,27.8
								C229.5,150.1,236.9,140.9,236.9,122.4z"/>
						</g>
					</g>
					<g>
						<g>
							<path class="st1" d="M267.2,167.9V43.5h23.7v45.2c6.8-9.6,15.7-14.2,27-14.2c23.5,0,37.4,19.4,37.4,47
								c0,30.7-16.5,48.9-39.4,48.9c-11.1,0-19.6-4.3-25.4-13.5l-0.2,11.1H267.2z M330.9,123.1c0-18.7-6.7-28.1-20.7-28.1
								c-13.3,0-20.2,9.8-20.2,29.6c0,15.4,8.9,26.1,20.4,26.1C322.4,150.7,330.9,139.4,330.9,123.1z"/>
						</g>
					</g>
					<g>
						<g>
							<path class="st1" d="M420.6,167.9c-0.7-2.2-1.3-5.4-1.5-8.1c-5.7,6.3-15.4,10.5-27.6,10.5c-20.7,0-30.4-10.2-30.4-25
								c0-26.3,17.6-29.2,41.8-32.6c12-1.7,15.4-4.1,15.4-10.4c0-5.9-5.9-9.4-15.4-9.4c-10.9,0-15.4,5.4-16.5,13.5h-22.4
								c0.4-18.9,10.7-32,40-32c28.9,0,38.9,13,38.9,35.9v57.6H420.6z M418.9,123.3c-2.4,2.4-6.7,3.7-15.5,5.4
								c-13.7,2.6-18.1,6.5-18.1,14.2c0,6.8,4.1,10.2,11.7,10.2c12.4,0,21.7-9.1,21.8-19.8L418.9,123.3z"/>
						</g>
					</g>
					<g>
						<g>
							<path class="st1" d="M448.8,167.9V43.5h24.1v124.4H448.8z"/>
						</g>
					</g>
					<path class="st0" d="M538,167.9c-0.7-2.2-1.3-5.4-1.5-8.1c-5.7,6.3-15.4,10.5-27.6,10.5c-20.7,0-30.4-10.2-30.4-25
						c0-26.3,17.6-29.2,41.8-32.6c12-1.7,15.4-4.1,15.4-10.4c0-5.9-5.9-9.4-15.4-9.4c-10.9,0-15.4,5.4-16.5,13.5h-22.4
						c0.4-18.9,10.7-32,40-32c28.9,0,38.9,13,38.9,35.9v57.6H538z M536.4,123.3c-2.4,2.4-6.7,3.7-15.5,5.4
						c-13.7,2.6-18.1,6.5-18.1,14.2c0,6.8,4.1,10.2,11.7,10.2c12.4,0,21.7-9.1,21.8-19.8L536.4,123.3z"/>
					<g>
						<g>
							<path class="st1" d="M649.9,135c-2.6,21.1-19.8,35.3-41.8,35.3c-24.8,0-41.8-16.5-41.8-49c0-32.6,17-46.8,42.6-46.8
								c23.7,0,39.8,13.5,41.3,35h-24.2c-1.3-9.4-8.1-15-17.2-15c-10.2,0-18.5,6.5-18.5,26.3s8.3,29.4,17.8,29.4
								c9.4,0,16.8-5.4,17.8-15.2H649.9z"/>
						</g>
					</g>
					<g>
						<g>
							<path class="st1" d="M707.5,107.9h22.4v25.9c0,19.2-11.1,36.5-36.8,36.5c-26.6,0-37.2-17-37.2-36.6V52.2h23.7v24.6h50.3v17
								h-50.3v37.4c0,11.5,4.1,18.1,13.9,18.1c9.6,0,14.1-6.5,14.1-17.8V107.9z"/>
						</g>
					</g>
				</g>
			</g>
		</g>
	</g>
	<path class="st0" d="M558.5,190.1c-8.4,12.6-22.7,20.9-39,20.9c-16.3,0-30.6-8.3-39-20.9L558.5,190.1z"/>
	<rect class="st2" width="773.5" height="254.6"/>
</g>
</svg>
